<svg width="16" height="16" viewBox="0 0 16 16" fill="none" xmlns="http://www.w3.org/2000/svg">
<g clip-path="url(#clip0_103_3769)">
<path d="M6.0633 9.3894C5.56599 8.94804 5.26328 8.34828 5.26328 7.67548C5.26328 6.32757 6.4845 5.24109 7.99979 5.24109C8.74965 5.24109 9.43984 5.51098 9.9285 5.95234" stroke="#808194" stroke-width="0.666667" stroke-linecap="round" stroke-linejoin="round"/>
<path d="M10.6854 8.10693C10.4848 9.09884 9.60604 9.88159 8.4912 10.0615" stroke="#808194" stroke-width="0.666667" stroke-linecap="round" stroke-linejoin="round"/>
<path d="M3.37694 11.7773C2.00436 10.8192 0.841947 9.41977 -0.000457764 7.6751C0.850596 5.92273 2.02079 4.51561 3.40203 3.54985C4.77461 2.58409 6.35823 2.05969 7.99979 2.05969C9.65087 2.05969 11.2336 2.59178 12.6149 3.56446" stroke="#808194" stroke-width="0.666667" stroke-linecap="round" stroke-linejoin="round"/>
<path d="M14.4415 5.25574C15.0366 5.95853 15.5598 6.76974 16 7.67475C14.2988 11.1787 11.2924 13.2894 7.9998 13.2894C7.2534 13.2894 6.51737 13.1817 5.80989 12.9718" stroke="#808194" stroke-width="0.666667" stroke-linecap="round" stroke-linejoin="round"/>
<path d="M14.8216 1.61011L1.17876 13.739" stroke="#808194" stroke-width="0.666667" stroke-linecap="round" stroke-linejoin="round"/>
</g>
<defs>
<clipPath id="clip0_103_3769">
<rect width="16" height="16" fill="white"/>
</clipPath>
</defs>
</svg>
